PathFileType	4	(X/Y/Z)	C:/Users/opensim2020/Desktop/walking_exp_matlab/subject06_walking18_straight_01.trc	
DataRate	CameraRate	NumFrames	NumMarkers	Units	OrigDataRate	OrigDataStartFrame	OrigNumFrames	
100.00	100.00	6	47	mm	100.00	1117	396	
Frame#	Time	LFHD			RFHD			LBHD			RBHD			C7			T10			CLAV			STRN			RBAK			LSHO			LUPA			LELB			LFRM			LWRA			LWRB			LFIN			RSHO			RUPA			RELB			RFRM			RWRA			RWRB			RFIN			LASI			RASI			LPSI			RPSI			LTHI			LKNE			LTIB			LANK			LHEE			LTOE			RTHI			RKNE			RTIB			RANK			RHEE			RTOE			*39			*40			*41			*42			*43			*44			*45			*46			
		X1	Y1	Z1	X2	Y2	Z2	X3	Y3	Z3	X4	Y4	Z4	X5	Y5	Z5	X6	Y6	Z6	X7	Y7	Z7	X8	Y8	Z8	X9	Y9	Z9	X10	Y10	Z10	X11	Y11	Z11	X12	Y12	Z12	X13	Y13	Z13	X14	Y14	Z14	X15	Y15	Z15	X16	Y16	Z16	X17	Y17	Z17	X18	Y18	Z18	X19	Y19	Z19	X20	Y20	Z20	X21	Y21	Z21	X22	Y22	Z22	X23	Y23	Z23	X24	Y24	Z24	X25	Y25	Z25	X26	Y26	Z26	X27	Y27	Z27	X28	Y28	Z28	X29	Y29	Z29	X30	Y30	Z30	X31	Y31	Z31	X32	Y32	Z32	X33	Y33	Z33	X34	Y34	Z34	X35	Y35	Z35	X36	Y36	Z36	X37	Y37	Z37	X38	Y38	Z38	X39	Y39	Z39	X40	Y40	Z40	X41	Y41	Z41	X42	Y42	Z42	X43	Y43	Z43	X44	Y44	Z44	X45	Y45	Z45	X46	Y46	Z46	X47	Y47	Z47	

100	0.990	1323.18872	-306.94058	1659.55701	1454.94104	-309.25760	1652.31262	1322.17029	-439.58301	1603.52283	1451.82104	-440.38797	1601.41016	1379.75537	-441.85071	1450.72388	1395.58337	-485.67737	1122.64746	1388.16687	-334.43570	1370.70020	1384.58484	-300.52539	1193.66907	1457.65332	-523.52466	1282.71008	1224.14355	-377.39264	1402.09253	1150.59900	-342.72708	1203.51758	1138.29907	-315.87454	1093.10901	1134.40295	-232.16664	966.13672	1198.47498	-142.01024	889.00153	1151.73254	-185.03383	857.75427	1166.49292	-113.84405	803.58081	1545.27539	-387.70453	1407.67114	1633.47375	-437.71475	1212.63794	1649.02710	-434.59375	1091.08508	1672.23547	-430.65784	971.82953	1651.99011	-385.33942	824.20618	1688.29932	-440.24509	835.69165	1696.84338	-414.64920	755.21686	1291.82434	-306.17038	955.98560	1514.59619	-306.97134	969.78870	1321.98145	-464.26700	987.35706	1490.46497	-459.44006	991.48816	1252.19958	-399.63773	645.79803	1280.15137	-427.07373	484.02863	1304.26550	-507.30508	239.07103	1355.80566	-543.67401	73.01913	1403.47949	-583.31158	62.96013	1351.63123	-401.03629	41.06087	1588.86719	-308.23325	639.83429	1563.91809	-264.71680	520.91443	1563.60754	-226.46864	265.60181	1528.32410	-163.41751	88.53799	1476.23328	-186.78239	64.50443	1542.18848	-3.24342	64.54369	1379.50146	-408.88971	1698.34204																					 
101	1.000	1324.21033	-301.63181	1658.98706	1455.93359	-303.93356	1651.53296	1323.20618	-434.33554	1602.92151	1452.82935	-435.03094	1600.63721	1380.59241	-436.62018	1450.00012	1396.17883	-480.32257	1121.95422	1388.71069	-329.18878	1369.95471	1384.84924	-295.14456	1192.98523	1458.32996	-518.24896	1281.90088	1224.84265	-372.29205	1401.52734	1151.46436	-337.37924	1203.00391	1139.22974	-310.23038	1092.71814	1136.04114	-225.42653	966.38812	1200.58594	-134.44168	890.57532	1153.95288	-177.15991	858.60748	1169.15796	-105.62783	805.12329	1546.00037	-382.34012	1406.74634	1633.94043	-432.71310	1211.69885	1649.47278	-429.86954	1090.16309	1672.66052	-426.12875	970.87744	1652.63037	-380.82629	823.22546	1688.67432	-435.79120	834.67743	1697.14539	-410.48444	754.19110	1291.52319	-301.06104	955.23895	1514.39465	-301.10974	968.77722	1322.32202	-459.02478	986.84167	1490.81250	-453.69495	990.81641	1252.12561	-395.74609	645.33978	1280.10547	-423.92087	483.67169	1303.81348	-506.27679	239.30493	1355.84485	-543.58942	73.46826	1403.44995	-583.40509	63.60323	1351.57861	-401.00125	40.94446	1587.96606	-302.44858	638.99115	1562.80603	-259.22150	520.55090	1563.41040	-217.51578	265.66983	1528.79468	-150.60400	89.73505	1476.67285	-173.80736	66.43580	1541.87842	10.44903	65.71945	1380.64453	-403.65503	1697.65979																					 
102	1.010	1325.23596	-296.77365	1658.26685	1456.98315	-298.55698	1650.78442	1324.23291	-428.99869	1602.26025	1453.90417	-429.66144	1599.81934	1381.51770	-431.38312	1449.35986	1396.69238	-474.81232	1121.16699	1389.33093	-323.90341	1369.23743	1385.24402	-289.79419	1192.28943	1459.02905	-512.72742	1281.01025	1225.56897	-367.17096	1401.03967	1152.20520	-332.07932	1202.52832	1140.20264	-304.60739	1092.26794	1137.64160	-218.66870	966.58972	1202.70581	-127.35642	891.93365	1156.22595	-169.47841	859.35266	1171.84338	-97.48907	806.61072	1546.78699	-376.85132	1405.82898	1634.43896	-427.56604	1210.77783	1649.89917	-425.06561	1089.25244	1673.12366	-421.35870	969.93622	1653.11816	-376.22720	822.23682	1688.97217	-431.35950	833.70795	1697.57336	-406.21643	753.28137	1291.50757	-295.83270	954.52826	1514.36743	-295.31616	967.75879	1322.63611	-453.74460	986.27814	1491.17432	-447.94873	990.04504	1252.06311	-391.90808	644.85406	1280.10840	-420.68008	483.26154	1303.48755	-505.01166	239.45555	1355.83582	-543.39832	73.88255	1403.59473	-583.42273	64.36541	1351.51013	-401.02365	40.77664	1587.26782	-296.23270	638.38605	1561.85986	-253.43005	520.47723	1563.28088	-208.88457	265.85712	1529.34033	-138.94116	90.80870	1477.39917	-162.49448	68.11208	1541.25659	22.94449	66.85960	1381.75940	-398.32861	1696.96582																					 
103	1.020	1326.29138	-291.28430	1657.76672	1458.01794	-293.11545	1650.07178	1325.35315	-423.71716	1601.62805	1455.01526	-424.22672	1599.03967	1382.49109	-426.07288	1448.68347	1397.18628	-469.20956	1120.47913	1390.10767	-318.45432	1368.60266	1385.58105	-284.37338	1191.54541	1459.83643	-507.35855	1280.17139	1226.35352	-361.96805	1400.51807	1153.20081	-326.83624	1201.97217	1141.28772	-299.02933	1091.77539	1139.21924	-212.25340	966.78510	1204.68115	-120.04624	893.30670	1158.53381	-162.26439	860.00024	1174.34656	-89.72263	807.88312	1547.61487	-371.34555	1404.92529	1635.06775	-422.20511	1209.81494	1650.44373	-419.80988	1088.30078	1673.53467	-416.51395	969.00275	1653.60266	-371.53589	821.21869	1689.32983	-426.75305	832.88922	1697.80261	-401.72104	752.20917	1292.00073	-290.38501	953.95636	1514.35022	-289.53894	966.80988	1322.96924	-448.48737	985.74866	1491.50867	-442.27182	989.32227	1252.08533	-388.10773	644.43811	1279.87109	-417.51617	482.88013	1303.43457	-503.37024	239.57471	1355.71899	-543.30762	74.39082	1403.45593	-583.32153	64.99208	1351.50952	-401.38794	40.58395	1586.50183	-289.80692	637.93030	1560.89661	-247.14240	520.63934	1563.21301	-200.47980	266.01453	1529.75098	-128.41736	91.50301	1477.76636	-151.36510	68.56035	1540.45667	34.15686	67.89729	1382.98083	-393.06226	1696.28430																					 
104	1.030	1327.40723	-285.94513	1657.25806	1459.12927	-287.72391	1649.38635	1326.56201	-418.47095	1601.01501	1456.21411	-418.79578	1598.30676	1383.31909	-420.30688	1448.01489	1397.73315	-463.62228	1119.78479	1390.83984	-312.98752	1367.96057	1386.03247	-278.87332	1190.88965	1460.66772	-501.75705	1279.40808	1227.15857	-356.80835	1399.99780	1154.18042	-321.53192	1201.39404	1142.35620	-293.49371	1091.21875	1141.09888	-206.11264	966.80823	1206.81934	-113.34226	894.42194	1160.84741	-154.98384	860.54767	1177.00342	-82.25865	809.04175	1548.48779	-365.75189	1404.05127	1635.72156	-416.76996	1208.85767	1650.88464	-414.72284	1087.37341	1673.97937	-411.46561	968.05945	1653.98730	-366.70303	820.23785	1689.66003	-421.95270	831.84442	1698.15869	-397.16928	751.23083	1291.11414	-285.67731	952.93518	1514.39160	-283.89859	965.83197	1323.26489	-443.18634	985.23737	1491.82227	-436.50986	988.57422	1251.89148	-383.94327	643.98090	1279.91956	-414.01965	482.45422	1303.11169	-501.98495	239.76056	1355.46875	-542.97467	74.94112	1403.01367	-583.04205	65.79095	1351.40576	-401.16577	40.45161	1586.08594	-282.97565	637.82562	1559.78113	-240.15829	521.06226	1563.15662	-192.34584	266.16916	1529.85205	-119.08621	91.85218	1478.10217	-142.18617	68.97598	1539.72144	43.89328	68.57698	1384.23132	-387.70157	1695.61926																					 
105	1.040	1328.57983	-280.63837	1656.74353	1460.30762	-282.26617	1648.76282	1327.76392	-412.97882	1600.44495	1457.42773	-413.30243	1597.60339	1384.27539	-414.69455	1447.28430	1398.24365	-457.90610	1119.05835	1391.70117	-307.52621	1367.34009	1386.58545	-273.32751	1190.23352	1461.50659	-496.06134	1278.58594	1228.03345	-351.52643	1399.48975	1155.20325	-316.27850	1200.83606	1143.51160	-288.13498	1090.66309	1142.59998	-199.81725	966.76898	1208.80103	-106.48762	895.55688	1163.20752	-148.14386	860.95917	1179.60583	-75.20190	809.92517	1549.41406	-360.14386	1403.18420	1636.42761	-411.17868	1207.91980	1651.50916	-409.22919	1086.47754	1674.47168	-406.30966	967.09827	1654.39734	-361.70111	819.24097	1689.98425	-417.00232	830.88470	1698.50415	-392.33075	750.27417	1291.19287	-280.42877	952.28802	1514.56201	-278.22928	964.92889	1323.62378	-437.86578	984.73413	1492.17163	-430.87955	987.83588	1252.07788	-379.99615	643.57294	1279.75049	-410.51071	482.07776	1302.61353	-500.56561	240.02307	1355.18921	-542.65228	75.64096	1402.60645	-582.89301	66.80270	1351.40906	-401.21063	40.35732	1585.48828	-276.09863	637.65808	1559.18860	-232.88782	521.79279	1563.07715	-184.53346	266.17282	1529.72217	-110.91071	91.97263	1478.05811	-134.10471	69.02087	1538.95288	52.43036	68.89191	1385.54419	-382.36334	1694.98840																					 
